<svg width="136" height="40" viewBox="0 0 136 40" fill="none" xmlns="http://www.w3.org/2000/svg">
<circle cx="10" cy="4" r="3.25" stroke="#FDA228" stroke-width="1.5"/>
<circle cx="7" cy="4" r="3.25" stroke="#FDA228" stroke-width="1.5"/>
<circle cx="133" cy="29" r="2.5" fill="#FC3E6B" stroke="#FC3E6B"/>
<path d="M120.909 32.3295C119.076 32.3295 117.5 31.9545 116.182 31.2045C114.871 30.447 113.86 29.3939 113.148 28.0455C112.443 26.6894 112.091 25.1174 112.091 23.3295C112.091 21.5341 112.443 19.9621 113.148 18.6136C113.86 17.2576 114.871 16.2045 116.182 15.4545C117.5 14.697 119.076 14.3182 120.909 14.3182C122.742 14.3182 124.314 14.697 125.625 15.4545C126.943 16.2045 127.955 17.2576 128.659 18.6136C129.371 19.9621 129.727 21.5341 129.727 23.3295C129.727 25.1174 129.371 26.6894 128.659 28.0455C127.955 29.3939 126.943 30.447 125.625 31.2045C124.314 31.9545 122.742 32.3295 120.909 32.3295ZM120.943 28.1364C121.61 28.1364 122.174 27.9318 122.636 27.5227C123.098 27.1136 123.451 26.5455 123.693 25.8182C123.943 25.0909 124.068 24.25 124.068 23.2955C124.068 22.3258 123.943 21.4773 123.693 20.75C123.451 20.0227 123.098 19.4545 122.636 19.0455C122.174 18.6364 121.61 18.4318 120.943 18.4318C120.254 18.4318 119.67 18.6364 119.193 19.0455C118.723 19.4545 118.364 20.0227 118.114 20.75C117.871 21.4773 117.75 22.3258 117.75 23.2955C117.75 24.25 117.871 25.0909 118.114 25.8182C118.364 26.5455 118.723 27.1136 119.193 27.5227C119.67 27.9318 120.254 28.1364 120.943 28.1364Z" fill="white"/>
<line x1="109" y1="18" x2="109" y2="32" stroke="white" stroke-width="4"/>
<circle cx="109" cy="14" r="2.5" stroke="#1DAAFC"/>
<path d="M109 15.9942V12C109 12 107 12 107 14.1022C107 16.2044 109 15.9942 109 15.9942Z" fill="#1DAAFC" stroke="#1DAAFC"/>
<path d="M104.318 8.72727V32H98.7614V8.72727H104.318Z" fill="white"/>
<path d="M87.9091 32.3295C86.0758 32.3295 84.5 31.9545 83.1818 31.2045C81.8712 30.447 80.8598 29.3939 80.1477 28.0455C79.4432 26.6894 79.0909 25.1174 79.0909 23.3295C79.0909 21.5341 79.4432 19.9621 80.1477 18.6136C80.8598 17.2576 81.8712 16.2045 83.1818 15.4545C84.5 14.697 86.0758 14.3182 87.9091 14.3182C89.7424 14.3182 91.3144 14.697 92.625 15.4545C93.9432 16.2045 94.9545 17.2576 95.6591 18.6136C96.3712 19.9621 96.7273 21.5341 96.7273 23.3295C96.7273 25.1174 96.3712 26.6894 95.6591 28.0455C94.9545 29.3939 93.9432 30.447 92.625 31.2045C91.3144 31.9545 89.7424 32.3295 87.9091 32.3295ZM87.9432 28.1364C88.6098 28.1364 89.1742 27.9318 89.6364 27.5227C90.0985 27.1136 90.4508 26.5455 90.6932 25.8182C90.9432 25.0909 91.0682 24.25 91.0682 23.2955C91.0682 22.3258 90.9432 21.4773 90.6932 20.75C90.4508 20.0227 90.0985 19.4545 89.6364 19.0455C89.1742 18.6364 88.6098 18.4318 87.9432 18.4318C87.2538 18.4318 86.6705 18.6364 86.1932 19.0455C85.7235 19.4545 85.3636 20.0227 85.1136 20.75C84.8712 21.4773 84.75 22.3258 84.75 23.2955C84.75 24.25 84.8712 25.0909 85.1136 25.8182C85.3636 26.5455 85.7235 27.1136 86.1932 27.5227C86.6705 27.9318 87.2538 28.1364 87.9432 28.1364Z" fill="white"/>
<path d="M77.6818 14.5455V18.6364H66.4545V14.5455H77.6818ZM68.7955 32V13.6591C68.7955 12.3106 69.0492 11.1932 69.5568 10.3068C70.0644 9.41288 70.7689 8.74621 71.6705 8.30682C72.572 7.85985 73.6136 7.63636 74.7955 7.63636C75.5682 7.63636 76.2955 7.69697 76.9773 7.81818C77.6667 7.93182 78.178 8.03409 78.5114 8.125L77.625 12.1932C77.4205 12.125 77.1705 12.0682 76.875 12.0227C76.5871 11.9773 76.3144 11.9545 76.0568 11.9545C75.4053 11.9545 74.9583 12.0985 74.7159 12.3864C74.4735 12.6742 74.3523 13.0682 74.3523 13.5682V32H68.7955Z" fill="white"/>
<path d="M63.6136 14.5455V18.6364H52.6023V14.5455H63.6136ZM54.9091 10.3636H60.4659V26.5114C60.4659 26.8523 60.5189 27.1288 60.625 27.3409C60.7386 27.5455 60.9015 27.6932 61.1136 27.7841C61.3258 27.8674 61.5795 27.9091 61.875 27.9091C62.0871 27.9091 62.3106 27.8902 62.5455 27.8523C62.7879 27.8068 62.9697 27.7689 63.0909 27.7386L63.9318 31.75C63.6667 31.8258 63.2917 31.9205 62.8068 32.0341C62.3295 32.1477 61.7576 32.2197 61.0909 32.25C59.7879 32.3106 58.6705 32.1591 57.7386 31.7955C56.8144 31.4242 56.1061 30.8485 55.6136 30.0682C55.1288 29.2879 54.8939 28.3068 54.9091 27.125V10.3636Z" fill="white"/>
<path d="M39.7614 32V14.5455H45.1591V17.7273H45.3409C45.6591 16.5758 46.178 15.7197 46.8977 15.1591C47.6174 14.5909 48.4545 14.3068 49.4091 14.3068C49.6667 14.3068 49.9318 14.3258 50.2045 14.3636C50.4773 14.3939 50.7311 14.4432 50.9659 14.5114V19.3409C50.7008 19.25 50.3523 19.178 49.9205 19.125C49.4962 19.072 49.1174 19.0455 48.7841 19.0455C48.125 19.0455 47.5303 19.1932 47 19.4886C46.4773 19.7765 46.0644 20.1818 45.7614 20.7045C45.4659 21.2197 45.3182 21.8258 45.3182 22.5227V32H39.7614Z" fill="white"/>
<path d="M28.9091 32.3295C27.0758 32.3295 25.5 31.9545 24.1818 31.2045C22.8712 30.447 21.8598 29.3939 21.1477 28.0455C20.4432 26.6894 20.0909 25.1174 20.0909 23.3295C20.0909 21.5341 20.4432 19.9621 21.1477 18.6136C21.8598 17.2576 22.8712 16.2045 24.1818 15.4545C25.5 14.697 27.0758 14.3182 28.9091 14.3182C30.7424 14.3182 32.3144 14.697 33.625 15.4545C34.9432 16.2045 35.9545 17.2576 36.6591 18.6136C37.3712 19.9621 37.7273 21.5341 37.7273 23.3295C37.7273 25.1174 37.3712 26.6894 36.6591 28.0455C35.9545 29.3939 34.9432 30.447 33.625 31.2045C32.3144 31.9545 30.7424 32.3295 28.9091 32.3295ZM28.9432 28.1364C29.6098 28.1364 30.1742 27.9318 30.6364 27.5227C31.0985 27.1136 31.4508 26.5455 31.6932 25.8182C31.9432 25.0909 32.0682 24.25 32.0682 23.2955C32.0682 22.3258 31.9432 21.4773 31.6932 20.75C31.4508 20.0227 31.0985 19.4545 30.6364 19.0455C30.1742 18.6364 29.6098 18.4318 28.9432 18.4318C28.2538 18.4318 27.6705 18.6364 27.1932 19.0455C26.7235 19.4545 26.3636 20.0227 26.1136 20.75C25.8712 21.4773 25.75 22.3258 25.75 23.2955C25.75 24.25 25.8712 25.0909 26.1136 25.8182C26.3636 26.5455 26.7235 27.1136 27.1932 27.5227C27.6705 27.9318 28.2538 28.1364 28.9432 28.1364Z" fill="white"/>
<path d="M1.76136 32V8.72727H11.375C13.1174 8.72727 14.6212 9.06818 15.8864 9.75C17.1591 10.4242 18.1402 11.3674 18.8295 12.5795C19.5189 13.7841 19.8636 15.1856 19.8636 16.7841C19.8636 18.3902 19.5114 19.7955 18.8068 21C18.1098 22.197 17.1136 23.125 15.8182 23.7841C14.5227 24.4432 12.9848 24.7727 11.2045 24.7727H5.27273V20.3409H10.1591C11.0076 20.3409 11.7159 20.1932 12.2841 19.8977C12.8598 19.6023 13.2955 19.1894 13.5909 18.6591C13.8864 18.1212 14.0341 17.4962 14.0341 16.7841C14.0341 16.0644 13.8864 15.4432 13.5909 14.9205C13.2955 14.3902 12.8598 13.9811 12.2841 13.6932C11.7083 13.4053 11 13.2614 10.1591 13.2614H7.38636V32H1.76136Z" fill="white"/>
</svg>
